<svg xmlns="http://www.w3.org/2000/svg" viewBox="0 0 1024 1024">
  <!-- My Music: Apple 红圆角底 + 白唱片 (iconfont 素材库「defore的小icon」disc;
       四圈同心圆卷绕交替 = 外圈 + 唱片芯两道白环, 缩 70% 居中, PNG 源同款无圆角) -->
  <rect width="1024" height="1024" rx="192" fill="#ff2f56"/>
  <path fill="#ffffff" transform="translate(153.6 153.6) scale(0.7)" d="M512 42.666667q95.658667 0 182.485333 37.162667t149.674667 100.010667 100.010667 149.674667 37.162667 182.485333-37.162667 182.485333-100.010667 149.674667-149.674667 100.010667-182.485333 37.162667-182.485333-37.162667-149.674667-100.010667-100.010667-149.674667-37.162667-182.485333 37.162667-182.485333 100.010667-149.674667 149.674667-100.010667 182.485333-37.162667zM512 128q-77.994667 0-149.162667 30.506667t-122.496 81.834667-81.834667 122.496-30.506667 149.162667 30.506667 149.162667 81.834667 122.496 122.496 81.834667 149.162667 30.506667 149.162667-30.506667 122.496-81.834667 81.834667-122.496 30.506667-149.162667-30.506667-149.162667-81.834667-122.496-122.496-81.834667-149.162667-30.506667zM512 341.333333q70.656 0 120.661333 50.005333t50.005333 120.661333-50.005333 120.661333-120.661333 50.005333-120.661333-50.005333-50.005333-120.661333 50.005333-120.661333 120.661333-50.005333zM512 426.666667q-35.328 0-60.330667 25.002667t-25.002667 60.330667 25.002667 60.330667 60.330667 25.002667 60.330667-25.002667 25.002667-60.330667-25.002667-60.330667-60.330667-25.002667z"/>
</svg>
